<?xml version="1.0" encoding="UTF-8" standalone="no"?>
<!-- Created with Inkscape (http://www.inkscape.org/) -->

<svg
   xmlns:dc="http://purl.org/dc/elements/1.1/"
   xmlns:cc="http://creativecommons.org/ns#"
   xmlns:rdf="http://www.w3.org/1999/02/22-rdf-syntax-ns#"
   xmlns:svg="http://www.w3.org/2000/svg"
   xmlns="http://www.w3.org/2000/svg"
   xmlns:sodipodi="http://sodipodi.sourceforge.net/DTD/sodipodi-0.dtd"
   xmlns:inkscape="http://www.inkscape.org/namespaces/inkscape"
   width="210mm"
   height="297mm"
   viewBox="0 0 744.09448819 1052.3622047"
   id="svg2"
   version="1.1"
   inkscape:version="0.92.2 (5c3e80d, 2017-08-06)"
   sodipodi:docname="BoardShape.svg">
  <defs
     id="defs4" />
  <sodipodi:namedview
     id="base"
     pagecolor="#ffffff"
     bordercolor="#666666"
     borderopacity="1.0"
     inkscape:pageopacity="0.0"
     inkscape:pageshadow="2"
     inkscape:zoom="1"
     inkscape:cx="-17.5"
     inkscape:cy="608.91857"
     inkscape:document-units="px"
     inkscape:current-layer="layer1"
     showgrid="false"
     inkscape:window-width="2736"
     inkscape:window-height="1699"
     inkscape:window-x="-13"
     inkscape:window-y="-13"
     inkscape:window-maximized="1" />
  <metadata
     id="metadata7">
    <rdf:RDF>
      <cc:Work
         rdf:about="">
        <dc:format>image/svg+xml</dc:format>
        <dc:type
           rdf:resource="http://purl.org/dc/dcmitype/StillImage" />
        <dc:title></dc:title>
      </cc:Work>
    </rdf:RDF>
  </metadata>
  <g
     inkscape:label="Layer 1"
     inkscape:groupmode="layer"
     id="layer1">
    <g
       id="g4286-5-5"
       transform="translate(-7.00873,402.37741)"
       style="fill:#000000;fill-opacity:1">
      <g
         id="g4290-4-6"
         transform="translate(23,80)"
         style="fill:#000000;fill-opacity:1">
        <path
           style="fill:#000000;fill-opacity:1;stroke:#000000;stroke-width:4;stroke-miterlimit:4;stroke-dasharray:none;stroke-opacity:1"
           d="m 391.39648,478.15039 c -1.39817,6.9e-4 -2.70357,0.333 -3.90429,1.0293 -21.61547,14.85429 73.2791,164.02276 65,215 -7.25559,44.67512 -16.92772,63.29647 17,154 46.43081,11.5196 64.87005,27.35657 134,-4 14.73615,-45.19024 41.14646,-56.53889 26,-127 0,0 69.48508,-128.5562 45,-136 -24.48508,-7.44379 -66,54 -66,54 0,0 -2.25023,-33.60426 -28,-40 -3.57267,-0.88738 -6.73835,-1.12719 -9.5625,-0.91016 a 20.5,24 0 0 0 -20.4375,-22.5293 20.5,24 0 0 0 -19.01758,15.06836 c -4.32316,-2.81294 -9.58401,-4.65662 -15.98242,-4.6289 -22.28332,0.0965 -29,33 -29,33 0,0 -66.66626,-137.0433 -95.09571,-137.0293 z m 159.59571,107.58984 a 9,10.5 0 0 1 9,10.5 9,10.5 0 0 1 -0.19141,2.13868 c -3.1078,2.3293 -5.34335,5.30655 -6.91797,8.11523 a 9,10.5 0 0 1 -1.89062,0.24609 9,10.5 0 0 1 -5.02539,-1.79296 c -1.01967,-2.26704 -2.29297,-4.71107 -3.86524,-7.13868 a 9,10.5 0 0 1 -0.10937,-1.56836 9,10.5 0 0 1 9,-10.5 z"
           transform="translate(-36.99127,-479.37741)"
           id="path4282-1-6"
           inkscape:connector-curvature="0" />
      </g>
    </g>
  </g>
</svg>
