<?xml version="1.0" encoding="UTF-8" standalone="no"?>
<!-- Created with Inkscape (http://www.inkscape.org/) -->

<svg
   xmlns:dc="http://purl.org/dc/elements/1.1/"
   xmlns:cc="http://creativecommons.org/ns#"
   xmlns:rdf="http://www.w3.org/1999/02/22-rdf-syntax-ns#"
   xmlns:svg="http://www.w3.org/2000/svg"
   xmlns="http://www.w3.org/2000/svg"
   xmlns:sodipodi="http://sodipodi.sourceforge.net/DTD/sodipodi-0.dtd"
   xmlns:inkscape="http://www.inkscape.org/namespaces/inkscape"
   width="210mm"
   height="297mm"
   viewBox="0 0 744.09448819 1052.3622047"
   id="svg2"
   version="1.1"
   inkscape:version="0.92.2 (5c3e80d, 2017-08-06)"
   sodipodi:docname="DesignSketch.svg"
   inkscape:export-filename="C:\Users\Terri\Code\rockon\DesignSketch-final.png"
   inkscape:export-xdpi="300"
   inkscape:export-ydpi="300">
  <defs
     id="defs4" />
  <sodipodi:namedview
     id="base"
     pagecolor="#ffffff"
     bordercolor="#666666"
     borderopacity="1.0"
     inkscape:pageopacity="0.0"
     inkscape:pageshadow="2"
     inkscape:zoom="3.2661451"
     inkscape:cx="453.15735"
     inkscape:cy="827.53788"
     inkscape:document-units="px"
     inkscape:current-layer="layer1"
     showgrid="false"
     inkscape:window-width="2736"
     inkscape:window-height="1699"
     inkscape:window-x="-13"
     inkscape:window-y="-13"
     inkscape:window-maximized="1" />
  <metadata
     id="metadata7">
    <rdf:RDF>
      <cc:Work
         rdf:about="">
        <dc:format>image/svg+xml</dc:format>
        <dc:type
           rdf:resource="http://purl.org/dc/dcmitype/StillImage" />
        <dc:title></dc:title>
      </cc:Work>
    </rdf:RDF>
  </metadata>
  <g
     inkscape:label="Layer 1"
     inkscape:groupmode="layer"
     id="layer1">
    <g
       id="g4286"
       transform="translate(-1,4)"
       inkscape:export-xdpi="300"
       inkscape:export-ydpi="300">
      <g
         id="g4290"
         transform="translate(23,80)">
        <ellipse
           style="fill:#80b3ff;fill-opacity:1;stroke:#000000;stroke-width:4;stroke-miterlimit:4;stroke-dasharray:none;stroke-opacity:1"
           id="path4282"
           cx="513.5"
           cy="116.3622"
           rx="20.5"
           ry="24" />
        <ellipse
           style="fill:#ffffff;fill-opacity:1;stroke:#000000;stroke-width:4;stroke-miterlimit:4;stroke-dasharray:none;stroke-opacity:1"
           id="path4284"
           cx="514"
           cy="116.86221"
           rx="9"
           ry="10.5" />
      </g>
    </g>
    <path
       sodipodi:nodetypes="sccsczczcccs"
       inkscape:connector-curvature="0"
       id="path4163"
       d="m 437,300.3622 c 8.2791,-50.97724 -86.61547,-200.14571 -65,-215 25.61547,-14.85429 99,136 99,136 0,0 6.71668,-32.90347 29,-33 27.05114,-0.11718 34,33 34,33 0,0 5.25023,-26.39574 31,-20 25.74977,6.39574 28,40 28,40 0,0 41.51492,-61.4438 66,-54 24.48508,7.4438 -45,136 -45,136 15.14646,70.46111 -11.26385,81.80976 -26,127 -69.12995,31.35657 -87.5692,15.5196 -134,4 -33.92772,-90.70353 -24.25559,-109.32488 -17,-154 z"
       style="fill:#ffffff;fill-rule:evenodd;stroke:#000000;stroke-width:6;stroke-linecap:butt;stroke-linejoin:miter;stroke-miterlimit:4;stroke-dasharray:none;stroke-opacity:1;fill-opacity:1"
       inkscape:export-xdpi="300"
       inkscape:export-ydpi="300" />
    <path
       sodipodi:nodetypes="czczc"
       inkscape:connector-curvature="0"
       id="path4165"
       d="m 472,224.3622 c 0,0 -14.83309,85.77856 17,90 31.83309,4.22144 44,-91 44,-91 0,0 -29.45356,107.89409 8,116 37.45356,8.10591 54,-100 54,-100"
       style="fill:none;fill-rule:evenodd;stroke:#000000;stroke-width:4;stroke-linecap:butt;stroke-linejoin:miter;stroke-miterlimit:4;stroke-dasharray:none;stroke-opacity:1"
       inkscape:export-xdpi="300"
       inkscape:export-ydpi="300" />
    <path
       sodipodi:nodetypes="czccc"
       inkscape:connector-curvature="0"
       id="path4167"
       d="m 436,357.3622 c -6.71508,-2.68603 48.89918,-83.59103 77,-87 28.10082,-3.40897 54.40009,2.39717 70,19 4.03999,19.37096 -55,22 -55,22 7.69554,47.82086 -13.52798,55.86365 -53,103"
       style="fill:#ffffff;fill-opacity:1;fill-rule:evenodd;stroke:#000000;stroke-width:4;stroke-linecap:butt;stroke-linejoin:miter;stroke-miterlimit:4;stroke-dasharray:none;stroke-opacity:1"
       inkscape:export-xdpi="300"
       inkscape:export-ydpi="300" />
    <ellipse
       style="fill:#d40000;fill-opacity:1;stroke-width:6;stroke-miterlimit:4;stroke-dasharray:none"
       id="path4169"
       cx="388"
       cy="110.36221"
       rx="8"
       ry="7"
       inkscape:export-xdpi="300"
       inkscape:export-ydpi="300" />
    <ellipse
       style="fill:#ffdd55;fill-opacity:1;stroke-width:6;stroke-miterlimit:4;stroke-dasharray:none"
       id="path4169-6"
       cx="412.37967"
       cy="-157.4086"
       rx="8"
       ry="7"
       transform="scale(1,-1)"
       inkscape:export-xdpi="300"
       inkscape:export-ydpi="300" />
    <ellipse
       style="fill:#00aa44;fill-opacity:1;stroke-width:6;stroke-miterlimit:4;stroke-dasharray:none"
       id="path4169-2"
       cx="610"
       cy="272.36218"
       rx="8"
       ry="7"
       inkscape:export-xdpi="300"
       inkscape:export-ydpi="300" />
    <ellipse
       style="fill:#d40000;fill-opacity:1;stroke-width:6;stroke-miterlimit:4;stroke-dasharray:none"
       id="path4169-5"
       cx="646"
       cy="211.3622"
       rx="8"
       ry="7"
       inkscape:export-xdpi="300"
       inkscape:export-ydpi="300" />
    <ellipse
       style="fill:#00aa44;fill-opacity:1;stroke-width:6;stroke-miterlimit:4;stroke-dasharray:none"
       id="path4169-2-8"
       cx="435.26852"
       cy="205.19557"
       rx="8"
       ry="7"
       inkscape:export-xdpi="300"
       inkscape:export-ydpi="300" />
    <ellipse
       style="fill:#ffdd55;fill-opacity:1;stroke-width:6;stroke-miterlimit:4;stroke-dasharray:none"
       id="path4169-6-8"
       cx="625.87036"
       cy="242.04741"
       rx="8"
       ry="7"
       inkscape:export-xdpi="300"
       inkscape:export-ydpi="300" />
    <g
       id="g4349"
       transform="matrix(1.1109072,0,0,1.4170749,-70.108964,-202.31518)"
       inkscape:export-xdpi="300"
       inkscape:export-ydpi="300">
      <rect
         y="411.43295"
         x="476.13571"
         height="44.650497"
         width="114.02897"
         id="rect4294"
         style="fill:#2affd5;fill-opacity:1;stroke:#000000;stroke-width:3.62316751;stroke-miterlimit:4;stroke-dasharray:none;stroke-opacity:1" />
      <text
         id="text4315"
         y="441.1524"
         x="485.16626"
         style="font-style:normal;font-weight:normal;line-height:0%;font-family:sans-serif;letter-spacing:0px;word-spacing:0px;fill:#000000;fill-opacity:1;stroke:none;stroke-width:1px;stroke-linecap:butt;stroke-linejoin:miter;stroke-opacity:1"
         xml:space="preserve"><tspan
           y="441.1524"
           x="485.16626"
           id="tspan4317"
           sodipodi:role="line"
           style="font-size:22.5px;line-height:1.25">ESP8266</tspan></text>
      <rect
         style="fill:#0e91b5;fill-opacity:1;stroke:#000000;stroke-width:2.09545064;stroke-linecap:round;stroke-linejoin:round;stroke-miterlimit:4;stroke-dasharray:none;stroke-opacity:1"
         id="rect860"
         width="140.55843"
         height="93.377876"
         x="271.10513"
         y="313.99179" />
      <path
         style="fill:none;stroke:#d9ff00;stroke-width:0.74719846px;stroke-linecap:butt;stroke-linejoin:miter;stroke-opacity:1"
         d="m 421.99875,344.5776 c 3.61731,0 7.23462,0 10.85193,0 0.60289,0 1.20577,0 1.80866,0 0.038,0 1.08284,-0.041 1.2919,0 0.69937,-0.34425 0.66811,0.30963 1.03351,0.40511 0.86127,0.22506 0.21533,-0.33759 1.2919,0 0.22618,0.0709 0.32188,0.29053 0.51676,0.40511 0.4384,0.25776 0.79176,0.20256 1.2919,0.20256"
         id="path862"
         inkscape:connector-curvature="0" />
      <path
         style="fill:none;stroke:#d9ff00;stroke-width:0.74719846px;stroke-linecap:butt;stroke-linejoin:miter;stroke-opacity:1"
         d="m 437.7599,337.08306 c 2.40689,2.09653 1.50608,1.38324 2.58379,2.22811 0.0861,0.0675 0.20391,0.11715 0.25838,0.20255 1.2477,1.95626 -0.33287,-0.37774 0.25839,1.01278 0.19903,0.4681 0.45857,-0.0912 0.77513,0.40511 0.11555,0.18117 -0.0627,0.41115 0,0.60766 0.0295,0.0926 0.20391,0.11715 0.25838,0.20255 0.0385,0.0604 -0.0209,0.13706 0,0.20257 0.0661,0.20713 0.19233,0.40052 0.25838,0.60766 0.0209,0.0655 -0.0385,0.14216 0,0.20255 0.39397,0.61771 0.20483,-0.37046 0.51675,0.60767 0.0418,0.13101 -0.0544,0.277 0,0.40511 0.0386,0.0906 0.17226,0.13503 0.25839,0.20255 0.17225,0.13504 0.38163,0.24621 0.51676,0.40511 0.2673,0.31432 -0.43892,0.13179 0.25838,0.40511 0.077,0.0302 0.21986,-0.0604 0.25837,0 0.0771,0.12078 0,0.27007 0,0.40511 0,0.54015 0,1.0803 0,1.62044 0,0.0675 0.0609,0.15481 0,0.20256 -0.0609,0.0478 -0.17482,-0.0163 -0.25837,0 -0.26423,0.0518 -0.51676,0.13503 -0.77514,0.20255 -0.25839,0.0675 -0.50807,0.16069 -0.77514,0.20256 -0.16891,0.0265 -0.34451,0 -0.51676,0 -0.68901,0 -1.37802,0 -2.06703,0 -0.0949,0 -1.02313,-0.008 -1.03353,0 -0.0609,0.0478 0.0609,0.15481 0,0.20255 -0.0651,0.051 -0.71005,-0.051 -0.77513,0 -0.1218,0.0955 0.0771,0.28433 0,0.40512 -0.077,0.12077 -0.39496,-0.0955 -0.51676,0 -0.0609,0.0478 0.0385,0.14215 0,0.20255 -0.28564,0.44786 -0.16037,0.0629 -0.51676,0.20255 -0.21788,0.0854 -0.28566,0.34472 -0.51676,0.40511 -0.16341,0.0427 -0.39496,-0.0955 -0.51676,0 -0.19258,0.15098 -0.13657,0.41669 -0.25838,0.60767 -0.12712,0.19932 -0.90639,0.6109 -1.03352,0.81022 -0.0385,0.0604 0.0609,0.15481 0,0.20255 -0.13617,0.10676 -0.33405,0.15482 -0.51675,0.20256 -0.0817,0.0214 -0.21987,-0.0604 -0.25838,0 -0.077,0.12078 0.0544,0.277 0,0.40511 -0.26884,0.63223 -0.17226,-0.0675 -0.51676,0.20256 -0.0609,0.0478 0.0385,0.14216 0,0.20255 -0.15964,0.2503 -0.24947,0.20255 -0.51676,0.20255"
         id="path864"
         inkscape:connector-curvature="0" />
      <text
         xml:space="preserve"
         style="font-style:normal;font-variant:normal;font-weight:normal;font-stretch:condensed;font-size:29.88793945px;line-height:1.25;font-family:'Agency FB';-inkscape-font-specification:'Agency FB, Condensed';font-variant-ligatures:normal;font-variant-caps:normal;font-variant-numeric:normal;font-feature-settings:normal;text-align:start;letter-spacing:0px;word-spacing:0px;writing-mode:lr-tb;text-anchor:start;fill:#000000;fill-opacity:1;stroke:#d9ff00;stroke-width:0.74719846;stroke-opacity:1;"
         x="367.46344"
         y="376.59229"
         id="text868"
         transform="scale(1.1294253,0.88540606)"><tspan
           sodipodi:role="line"
           id="tspan866"
           x="367.46344"
           y="376.59229"
           style="font-style:normal;font-variant:normal;font-weight:normal;font-stretch:normal;font-size:12.95144081px;line-height:1;font-family:sans-serif;-inkscape-font-specification:sans-serif;stroke-width:0.74719846;stroke:#d9ff00;stroke-opacity:1;">on </tspan><tspan
           sodipodi:role="line"
           x="367.46344"
           y="413.95221"
           style="font-style:normal;font-variant:normal;font-weight:normal;font-stretch:normal;font-size:12.95144081px;line-height:1;font-family:sans-serif;-inkscape-font-specification:sans-serif;stroke-width:0.74719846;stroke:#d9ff00;stroke-opacity:1;"
           id="tspan870">back</tspan></text>
      <path
         style="fill:#0eb64e;fill-opacity:1;stroke:#000000;stroke-width:2.09545064;stroke-linecap:round;stroke-linejoin:round;stroke-miterlimit:4;stroke-dasharray:none;stroke-opacity:1"
         d="m 288.93336,321.2844 v 22.68604 h 99.21817 v -5.26674 h 5.94194 v -10.33064 h -5.94194 v -7.08866 z"
         id="rect872"
         inkscape:connector-curvature="0" />
      <path
         inkscape:connector-curvature="0"
         id="path886"
         d="m 288.4166,376.78447 v 22.68604 h 99.21817 v -5.26674 h 5.94194 v -10.33064 h -5.94194 v -7.08866 z"
         style="fill:#0eb64e;fill-opacity:1;stroke:#000000;stroke-width:2.09545064;stroke-linecap:round;stroke-linejoin:round;stroke-miterlimit:4;stroke-dasharray:none;stroke-opacity:1" />
      <path
         style="fill:#0eb64e;fill-opacity:1;stroke:#000000;stroke-width:2.09545064;stroke-linecap:round;stroke-linejoin:round;stroke-miterlimit:4;stroke-dasharray:none;stroke-opacity:1"
         d="m 393.31833,349.03443 v 22.68604 h -99.21817 v -5.26674 h -5.94194 v -10.33064 h 5.94194 v -7.08866 z"
         id="path888"
         inkscape:connector-curvature="0" />
    </g>
    <g
       id="g4354"
       transform="translate(22.240636,-120.16603)"
       inkscape:export-xdpi="300"
       inkscape:export-ydpi="300">
      <rect
         y="327.33292"
         x="462.4707"
         height="37.058601"
         width="37.058601"
         id="rect4294-4"
         style="fill:#ff2a7f;fill-opacity:1;stroke:#000000;stroke-width:1.94139874;stroke-miterlimit:4;stroke-dasharray:none;stroke-opacity:1" />
      <text
         id="text4319"
         y="349.36221"
         x="464"
         style="font-style:normal;font-weight:normal;line-height:0%;font-family:sans-serif;letter-spacing:0px;word-spacing:0px;fill:#000000;fill-opacity:1;stroke:none;stroke-width:1px;stroke-linecap:butt;stroke-linejoin:miter;stroke-opacity:1"
         xml:space="preserve"><tspan
           style="font-size:17.5px;line-height:1.25"
           y="349.36221"
           x="464"
           id="tspan4321"
           sodipodi:role="line">mic</tspan></text>
    </g>
    <text
       xml:space="preserve"
       style="font-style:normal;font-weight:normal;line-height:0%;font-family:sans-serif;letter-spacing:0px;word-spacing:0px;fill:#000000;fill-opacity:1;stroke:#d9ff00;stroke-width:1px;stroke-linecap:butt;stroke-linejoin:miter;stroke-opacity:1;"
       x="444"
       y="107.36221"
       id="text4323"
       inkscape:export-xdpi="300"
       inkscape:export-ydpi="300"><tspan
         sodipodi:role="line"
         id="tspan4325"
         x="444"
         y="107.36221"
         style="font-size:22.5px;line-height:1.25;stroke:#d9ff00;stroke-opacity:1;">LEDS</tspan></text>
    <text
       xml:space="preserve"
       style="font-style:normal;font-weight:normal;line-height:0%;font-family:sans-serif;letter-spacing:0px;word-spacing:0px;fill:#000000;fill-opacity:1;stroke:#d9ff00;stroke-width:1px;stroke-linecap:butt;stroke-linejoin:miter;stroke-opacity:1;"
       x="549"
       y="149.3622"
       id="text4327"
       inkscape:export-xdpi="300"
       inkscape:export-ydpi="300"><tspan
         sodipodi:role="line"
         id="tspan4329"
         x="549"
         y="149.3622"
         style="font-size:17.5px;line-height:1.25;stroke:#d9ff00;stroke-opacity:1;">lanyard</tspan><tspan
         sodipodi:role="line"
         x="549"
         y="171.2372"
         style="font-size:17.5px;line-height:1.25;stroke:#d9ff00;stroke-opacity:1;"
         id="tspan4331">hole</tspan></text>
    <path
       style="fill:none;fill-rule:evenodd;stroke:#d9ff00;stroke-width:1px;stroke-linecap:butt;stroke-linejoin:miter;stroke-opacity:1"
       d="m 460,114.3622 c -1.14487,1.13327 -4.78371,3.17557 -6,5 -2.20316,0.5036 -0.5286,2.0572 -1,3 -2.2883,4.57661 0.41447,-4.24341 -2,3 -0.10541,0.31623 0.10541,0.68378 0,1 -0.2357,0.70711 -0.7643,1.2929 -1,2 -0.10541,0.31623 0.14907,0.70186 0,1 -0.21082,0.42164 -0.85093,0.55279 -1,1 -0.21082,0.63246 0,1.33334 0,2 0,0.33334 0.14907,0.70186 0,1 -0.21082,0.42164 -0.78918,0.57837 -1,1 -0.29814,0.59629 0.29814,1.40372 0,2 -0.21082,0.42164 -0.78918,0.57837 -1,1 -0.14907,0.29815 0.14907,0.70186 0,1 -0.21082,0.42164 -0.78918,0.57837 -1,1 -0.14907,0.29815 0.14907,0.70186 0,1 -2.2883,4.57661 0.41447,-4.24341 -2,3 -0.10541,0.31623 0.2357,0.7643 0,1 -0.2357,0.23571 -0.66667,0 -1,0"
       id="path4333"
       inkscape:connector-curvature="0"
       inkscape:export-xdpi="300"
       inkscape:export-ydpi="300" />
    <path
       style="fill:none;fill-rule:evenodd;stroke:#d9ff00;stroke-width:1px;stroke-linecap:butt;stroke-linejoin:miter;stroke-opacity:1"
       d="m 440,131.3622 c 0.75456,2.24045 -0.56592,4.73634 0,7 0.11433,0.45733 0.85093,0.55279 1,1 0.191,0.573 0,4.06119 0,5 0,0.33334 -0.2357,0.7643 0,1 0.0852,0.0852 2.50364,0.16546 3,0 0.70711,-0.2357 1.29289,-0.76429 2,-1 2.60768,-0.86922 5.35702,-1.24486 8,-2 1.01354,-0.28958 1.96638,-0.79327 3,-1 0.0385,-0.008 2.9951,0.005 3,0 0.2357,-0.2357 0,-0.66666 0,-1"
       id="path4335"
       inkscape:connector-curvature="0"
       inkscape:export-xdpi="300"
       inkscape:export-ydpi="300" />
    <path
       style="fill:none;fill-rule:evenodd;stroke:#d9ff00;stroke-width:1px;stroke-linecap:butt;stroke-linejoin:miter;stroke-opacity:1"
       d="m 519,101.3622 c 4.0156,-0.66926 10.13175,-1.772451 14,-1.999995 2.99482,-0.176166 6.00415,0.157676 9,0 3.34533,-0.17607 6.65295,-0.86054 10,-1 4.66262,-0.194276 9.33333,0 14,0 2,0 4.00276,0.105117 6,0 4.34013,-0.228428 8.65797,-0.811216 13,-1 5.99434,-0.260624 12,0 18,0 6.23761,0 12.88287,-0.529283 19,1 2.76297,0.690741 5.27794,2.162445 8,2.999995 1.62451,0.49985 3.36022,0.55279 5,1 2.0339,0.5547 3.98072,1.39422 6,2 1.31641,0.39493 2.73676,0.45861 4,1 1.10467,0.47344 1.96942,1.38166 3,2 0.63914,0.38349 1.41797,0.53438 2,1 1.10432,0.88346 1.91357,2.09465 3,3 8,5.33334 -1.66667,-1.66666 5,5 0.84984,0.84984 2.24921,1.06152 3,2 0.65849,0.82311 0.5286,2.0572 1,3 2.34778,4.69556 1.50324,1.25811 3,5 0.67936,1.6984 1.72908,5.37447 2,7 0.2192,1.3152 0,2.66667 0,4 0,0.23764 0.11207,3.77587 0,4 -0.21082,0.42164 -0.71716,0.62288 -1,1 -0.72111,0.96149 -1.33333,2 -2,3 -0.66667,1 -1.38165,1.96943 -2,3 -0.38348,0.63914 -0.55279,1.40372 -1,2 -0.56569,0.75425 -1.47702,1.21554 -2,2 -0.29031,0.43547 0.26393,2.47215 0,3 -0.21082,0.42164 -0.78918,0.57837 -1,1 -0.14907,0.29815 0,0.66667 0,1 0,0.66667 0,1.33334 0,2 0,2.66667 0,5.33334 0,8"
       id="path4337"
       inkscape:connector-curvature="0"
       inkscape:export-xdpi="300"
       inkscape:export-ydpi="300" />
    <path
       style="fill:none;fill-rule:evenodd;stroke:#d9ff00;stroke-width:1px;stroke-linecap:butt;stroke-linejoin:miter;stroke-opacity:1"
       d="m 644,152.3622 c 1.66667,1.33334 3.22409,2.81607 5,4 0.27735,0.1849 0.70186,-0.14907 1,0 0.42164,0.21082 0.66667,0.66667 1,1 1.66667,1.66667 3.33333,3.33334 5,5 0.66667,0.66667 1.05719,2 2,2 0.74536,0 0.61652,-1.36086 1,-2 0.61835,-1.03057 1.46252,-1.92503 2,-3 0.4714,-0.9428 0.45767,-2.09612 1,-3 0.48507,-0.80845 1.33333,-1.33333 2,-2 0.33333,-0.33333 0.78918,-0.57836 1,-1 0.14907,-0.29814 -0.2357,-0.76429 0,-1 0.2357,-0.2357 0.7643,0.23571 1,0 0.2357,-0.2357 -0.2357,-0.76429 0,-1 0.2357,-0.2357 0.7643,0.23571 1,0 1.33333,-1.33333 -1.66667,-1 1,-1"
       id="path4341"
       inkscape:connector-curvature="0"
       inkscape:export-xdpi="300"
       inkscape:export-ydpi="300" />
    <path
       style="fill:none;fill-rule:evenodd;stroke:#d9ff00;stroke-width:1px;stroke-linecap:butt;stroke-linejoin:miter;stroke-opacity:1"
       d="m 541,147.3622 c -0.33956,5.73919 -3.39445,1.19723 -5,2 -4.16176,2.08088 1.06904,-0.069 -1,2 -0.2357,0.23571 -0.7643,-0.2357 -1,0 -0.2357,0.23571 0.14907,0.70186 0,1 -0.42164,0.84328 -1.57836,1.15673 -2,2 -0.14907,0.29815 0.14907,0.70186 0,1 -0.21082,0.42164 -0.78918,0.57837 -1,1 -0.19825,0.3965 0.20444,2.79557 0,3 -0.2357,0.23571 -0.7643,-0.2357 -1,0 -0.0453,0.0453 0,4.52851 0,5"
       id="path4343"
       inkscape:connector-curvature="0"
       inkscape:export-xdpi="300"
       inkscape:export-ydpi="300" />
    <path
       style="fill:none;fill-rule:evenodd;stroke:#d9ff00;stroke-width:1px;stroke-linecap:butt;stroke-linejoin:miter;stroke-opacity:1"
       d="m 522,155.3622 c 0.33333,1.33334 0.66667,2.66667 1,4 0.33333,0.33334 0.78918,0.57837 1,1 0.14907,0.29815 -0.2357,0.7643 0,1 0.2357,0.23571 0.7643,-0.2357 1,0 0.2357,0.23571 -0.2357,0.7643 0,1 0.2357,0.23571 0.7643,-0.2357 1,0 0.2357,0.23571 -0.2357,0.7643 0,1 2.06904,2.06904 -0.0809,-3.16176 2,1 0.14907,0.29815 -0.14907,0.70186 0,1 0.21082,0.42164 0.66667,0.66667 1,1 0.54208,0.54208 1.01906,1.49047 2,1 0.41375,-0.20687 2.71742,-2.57613 3,-3 0.41345,-0.62017 0.47295,-1.47295 1,-2 0.52705,-0.52704 1.47295,-0.47295 2,-1 0.2357,-0.2357 -0.2357,-0.76429 0,-1 0.98648,-0.98647 2,2.04908 2,-1"
       id="path4345"
       inkscape:connector-curvature="0"
       inkscape:export-xdpi="300"
       inkscape:export-ydpi="300" />
  </g>
</svg>
